<svg xmlns="http://www.w3.org/2000/svg" viewBox="0 0 512 635.22"><defs><style>.cls-1{fill:#c49e00;}.cls-2{fill:#ffd400;}.cls-3{fill:#fff;}.cls-4{fill:#aa8900;}</style></defs><title>Asset 5miniprojects</title><g id="Layer_2" data-name="Layer 2"><g id="Cabinet"><path class="cls-1" d="M297.57,179.68H101.05A41.62,41.62,0,0,0,59.44,221.3V362.46H75.18a21.93,21.93,0,0,1,21.93-21.93H295.35a28.4,28.4,0,0,1,28.41,28.4v84.49a12,12,0,0,1-12,12l-25.92,25.87h9.48a28.4,28.4,0,0,1,28.41,28.4V587.7a28.41,28.41,0,0,1-28.41,28.4H103.58a28.41,28.41,0,0,1-28.4-28.4V561.47H59.44v33.26a40.49,40.49,0,0,0,40.49,40.49h197.8a41.45,41.45,0,0,0,41.45-41.46V221.3A41.62,41.62,0,0,0,297.57,179.68Zm26.19,114.45a28.4,28.4,0,0,1-28.41,28.4H103.58a28.4,28.4,0,0,1-28.4-28.4v-68a28.41,28.41,0,0,1,28.4-28.4H295.35a28.41,28.41,0,0,1,28.41,28.4Z"/><path class="cls-2" d="M214.83,529.63V468.47a15,15,0,0,0-15-15H15a15,15,0,0,0-15,15v61.16a15,15,0,0,0,15,15H199.86A15,15,0,0,0,214.83,529.63ZM182.46,502a36.31,36.31,0,0,1-36.28,36.27H68.65A36.31,36.31,0,0,1,32.37,502v-6a36.31,36.31,0,0,1,36.28-36.27h77.53a36.31,36.31,0,0,1,36.28,36.27Z"/><path class="cls-3" d="M146.18,476.66H68.65a19.43,19.43,0,0,0-19.41,19.4v6a19.43,19.43,0,0,0,19.41,19.4h77.53A19.43,19.43,0,0,0,165.59,502v-6A19.43,19.43,0,0,0,146.18,476.66ZM96.46,504.6H84.94v11.53H73.83V504.6H62.3V493.5H73.83V482H84.94V493.5H96.46Zm30.11,11.53a8.54,8.54,0,1,1,8.54-8.54A8.54,8.54,0,0,1,126.57,516.13Zm17.08-17.08a8.54,8.54,0,1,1,8.54-8.54A8.54,8.54,0,0,1,143.65,499.05Z"/><path class="cls-2" d="M92.05,561.47v22.78a15,15,0,0,0,15,15H291.91a15,15,0,0,0,15-15V523.09a15,15,0,0,0-15-15H269L238.7,538.31l-1.32,1.32a29.12,29.12,0,0,0-6.62,11.12,16.19,16.19,0,0,1-15.24,10.72Z"/><path class="cls-3" d="M216.73,436.63a15,15,0,0,1,15,15v23.92l7.28-7.26V403.09H216.73Z"/><polygon class="cls-3" points="216.73 367.76 216.73 386.22 255.85 386.22 255.85 451.43 273.62 433.7 273.62 367.77 273.32 367.76 216.73 367.76"/><polygon class="cls-4" points="231.7 521.46 306.88 446.44 306.88 424.34 231.7 499.36 231.7 521.46"/><path class="cls-2" d="M101.66,162.81H321.47a53.38,53.38,0,0,0,40.28-18.36L472.83,16.55A8.66,8.66,0,0,0,474.94,11C475.11,4.22,468.71-.89,462,.13l-.21,0a13.49,13.49,0,0,0-8.18,4.55L342.45,134.32a16.46,16.46,0,0,1-1.17,1.2c-7.68,7-18.67-4.09-11.84-12l91-104.75a10.51,10.51,0,0,0-8.88-17.36l-.3,0a10.46,10.46,0,0,0-7,3.56L315.46,107.32a14.78,14.78,0,0,1-1.18,1.2c-7.68,7-18.66-4.08-11.83-12l60.28-69.41a10.5,10.5,0,0,0-10-17.18l-.33.06a10.52,10.52,0,0,0-5.88,3.42L288.46,80.33a14.62,14.62,0,0,1-1.17,1.2c-7.68,7-18.67-4.09-11.83-12l21.82-25.13c7-8.06-1.1-20.21-11.23-16.85l-.39.13A10.66,10.66,0,0,0,281,30.83L268.27,45.49a9.36,9.36,0,0,1-13.9.27,9.37,9.37,0,0,0-10.66-2.16C196.79,64.6,131,112.72,94.21,141,85,148.07,90,162.81,101.66,162.81Z"/><path class="cls-4" d="M493.55,30.82A579.32,579.32,0,0,0,356.38,405.13v190A11.61,11.61,0,0,0,377,602.54h0l-.33-190.6a20.47,20.47,0,0,1,8.23-16.44,5.4,5.4,0,0,1,8.62,4.32l.28,159.4a7.49,7.49,0,0,0,13.56,4.37c.47-.66.94-1.31,1.4-2l-.35-203.49a21,21,0,0,1,8.43-16.84,5.27,5.27,0,0,1,8.42,4.22l.28,163.93c0,7.67,10.22,10.38,14,3.71l1-1.73-.36-207.9a19.87,19.87,0,0,1,8-16A5.55,5.55,0,0,1,457,292l.26,151.41c0,8.21,11.37,10.44,14.42,2.82l.54-1.35-.34-196.13a18.47,18.47,0,0,1,7.42-14.82,5.91,5.91,0,0,1,9.44,4.72l.16,93.55c0,9.14,13.29,10.27,14.85,1.26l.11-.64-.23-136.23a24.49,24.49,0,0,1,8.4-18.52V37.54A10.46,10.46,0,0,0,493.55,30.82Z"/><path class="cls-3" d="M49.24,422.52H182.46v14.11h17.4v-57.3H36.2v57.3h13Zm0-31.86H182.46v16.79H49.24Z"/><path class="cls-2" d="M291.91,214.55H107a15,15,0,0,0-15,15v61.16a15,15,0,0,0,15,15H291.91a15,15,0,0,0,15-15V229.53A15,15,0,0,0,291.91,214.55Zm-59.51,35a7.32,7.32,0,0,1-7.34,5.89h-62.8a7.33,7.33,0,0,1-7.35-5.89,3,3,0,0,1,.66-2.52c7.06-7.38,22.35-14.79,38.09-14.79s31,7.41,38.09,14.79A3,3,0,0,1,232.4,249.58Z"/></g></g></svg>