<svg xmlns="http://www.w3.org/2000/svg" id="Layer_1" style="enable-background:new 0 0 198.7 90.3;" viewBox="0 0 198.7 90.3" x="0px" y="0px" xmlns:xml="http://www.w3.org/XML/1998/namespace" xml:space="preserve" xmlns:xlink="http://www.w3.org/1999/xlink" version="1.1">
    <style type="text/css">
        .st0{clip-path:url(#SVGID_2_);fill:none;stroke:#cb4793;stroke-width:5;stroke-miterlimit:10;}
        .st1{clip-path:url(#SVGID_2_);fill:none;stroke:#cb4793;stroke-width:5.1;stroke-miterlimit:10;}
        .st2{clip-path:url(#SVGID_2_);fill:none;stroke:#cb4793;stroke-width:4.9;stroke-miterlimit:10;}
        .st3{clip-path:url(#SVGID_2_);fill:none;stroke:#cb4793;stroke-width:4;stroke-miterlimit:10;}
    </style>
    <g>
        <defs>
            <path id="SVGID_1_" d="M 129.4 21.3 c 0.1 -0.7 0.5 -1.1 1.4 -1.9 c 0.4 -0.4 0.9 -0.9 1.6 -1.7 l 0.1 -0.1 c 0.9 -0.7 2.2 -0.7 3.1 -0.1 c 0.4 0.2 1 0.7 1.1 1.4 c 0.1 0.5 0 0.9 -0.3 1.3 l -0.1 0.1 l -1.5 1.7 c -0.8 1 -2 1.6 -3.4 1.6 h -0.1 l -0.1 0 c -1 -0.1 -1.8 -0.8 -2.1 -1.8 l 0 -0.2 L 129.4 21.3 Z M 198.7 18.1 l -0.1 0.2 l -0.2 0.5 l -0.3 0.4 l -1.4 1.4 l -2.7 2.5 c -2.7 2.6 -5.5 5.1 -8.5 7.3 c -2.3 1.9 -4.9 3.5 -7.7 4.8 c -1.5 0.7 -3.1 1.1 -4.7 1.3 c -2.2 0.2 -4.4 -0.9 -5.5 -2.8 l -0.1 -0.2 c -0.1 -0.4 -0.2 -0.8 -0.3 -1.3 c -1 0.9 -2 1.7 -3 2.6 c -1.1 1 -2.3 1.9 -3.5 2.7 c -1 0.8 -2.1 1.4 -3.4 1.8 c -1.6 0.7 -3.6 0.2 -4.7 -1.3 c -1.4 -1.8 -1 -4 -0.6 -5.5 c 0.3 -1.3 0.7 -2.5 1.2 -3.8 c -0.8 1 -1.6 2 -2.3 3.1 c -0.9 1.3 -1.7 2.7 -2.4 4.1 c -1.1 1.9 -2.2 3.9 -3.5 5.7 c -0.5 0.9 -1.6 1.2 -2.8 0.8 c -0.5 -0.1 -1 -0.4 -1.4 -0.8 c -0.3 -0.4 -0.4 -0.8 -0.3 -1.3 c 0.6 -2.2 1.3 -4.4 2.2 -6.5 c -2.4 2.1 -4.8 4.1 -7.3 6 c -1.3 0.9 -2.7 1.9 -3.8 2.5 c -2.2 1.4 -8.1 5.1 -10.8 1.4 l -0.1 -0.1 c -0.5 -0.8 -0.7 -1.8 -0.6 -2.7 c 0 -0.3 0.1 -0.6 0.1 -0.9 c -1.2 1.2 -2.3 2.2 -3.4 3.2 l -0.9 0.7 c -1.1 1 -2.3 1.8 -3.6 2.6 c -3.1 1.8 -5.4 2.3 -6.9 1.5 c -1.1 -0.6 -1.7 -1.7 -1.9 -3.4 l 0 -0.7 c 0 -0.4 0 -0.7 0 -1 c 0 -0.7 0.1 -1.4 0.2 -2.2 c -1.2 1 -2.3 2 -3.3 2.9 c -2.9 2.6 -6.1 5 -9.5 7.1 c -2.7 1.6 -5.8 3 -8.7 2 c -1.4 -0.4 -2.5 -1.6 -2.9 -3.1 l 0 -0.1 c -0.2 -1.6 -0.1 -3.1 0.3 -4.7 c 0.3 -1.5 0.6 -3.1 1.1 -4.6 c -1.6 0.9 -3.3 1.7 -5 2.4 l -0.1 0 c -0.3 0.1 -0.7 0.2 -1.1 0.4 c -0.5 0.2 -1 0.3 -1.5 0.5 c -0.3 0.6 -0.6 1.2 -1 1.8 c -0.7 1.3 -1.5 2.6 -2.3 3.9 c -1 1.6 -2.4 3.1 -4 4.2 c -1.6 1.2 -3.8 1.6 -5.8 1 c -1.2 -0.4 -2 -1.3 -2.4 -2.4 c -0.3 -0.9 -0.4 -1.9 -0.3 -2.8 c 0.3 -2.6 1 -5.1 2.3 -7.4 c 0.4 -0.8 0.9 -1.5 1.4 -2.3 c -0.2 -0.1 -0.4 -0.3 -0.6 -0.4 c -0.3 0 -0.6 0.1 -0.9 0.1 l -1.6 0.2 c -1.8 0.3 -3.7 0.6 -5.5 1 c -0.4 0.1 -0.8 0.2 -1.2 0.2 c -0.3 0.1 -0.5 0.1 -0.8 0.2 c -0.5 1.2 -1 2.4 -1.5 3.5 c -0.6 1.3 -1.1 2.7 -1.7 4 c -2.2 5.4 -4.4 11.1 -6.4 16.7 l -2 5.9 c -0.3 1.2 -0.6 2.6 -1 4 c 0.1 1 -0.7 1.9 -1.9 2.1 c -1.3 0.3 -3 -0.3 -3.3 -1.7 l 0 -0.2 c -0.1 -1.5 0.2 -3.1 0.8 -4.5 c 1.2 -4.1 2.7 -8.2 4.2 -12.2 l 0.7 -1.9 c 1.6 -4.2 3.4 -8.5 5.1 -12.7 l 0.8 -1.8 c -0.7 0.2 -1.4 0.3 -2.1 0.5 c -1.2 0.3 -2.4 0.5 -3.6 0.8 l -12.3 2.8 c -0.7 1.8 -1.4 3.5 -2.2 5.3 c -0.6 1.6 -1.3 3.1 -1.9 4.7 l -6.4 16.4 c -0.3 0.8 -0.6 1.6 -0.9 2.4 c -0.9 2.5 -1.9 5 -2.8 7.5 c 0.2 0.2 0.4 0.5 0.5 0.8 c 0.1 0.4 0.1 0.8 -0.1 1.2 c -0.6 1.7 -1.4 3.3 -2.4 4.8 c -0.4 0.7 -1.3 1 -2.1 1 c -0.4 0 -0.8 -0.1 -1.1 -0.2 c -0.8 -0.2 -2 -1 -1.8 -2.3 l 0 -0.1 c 1.8 -6.3 3.9 -12.6 6.5 -18.6 c 0.9 -2.3 1.8 -4.7 2.8 -7.1 c 1.2 -3.1 2.4 -6.2 3.7 -9.4 l 2.1 -5 l -8 1.8 c -3.2 0.7 -6.1 1.3 -9.1 1.8 c -1 0.3 -2.1 -0.1 -2.8 -0.9 c -0.4 -0.5 -0.4 -1.1 -0.2 -1.5 c 0.2 -0.6 0.8 -1 1.5 -1.1 c 1.7 -0.5 3.6 -0.9 5.4 -1.2 c 0.9 -0.2 1.8 -0.4 2.8 -0.6 c 4.3 -1 8.4 -1.9 12.4 -2.9 l 2.9 -7.1 l 7.3 -16.8 l 3.6 -7.8 l 2.5 -5.8 l 0.4 -0.7 c 0.2 -0.9 1 -1.6 2.2 -1.6 c 1.2 0 2.5 0.7 2.6 1.9 c 0 0.8 -0.1 1.5 -0.4 2.1 l -1.2 3 l -1.9 4 l -3.8 8.4 c -1.1 2.6 -2.2 5 -3.2 7.4 l 4 -0.8 c 0.3 -0.2 0.6 -0.2 1 -0.3 l 0.1 0 c 2.7 -0.5 5.5 -1 8.4 -1.4 l 1.3 -0.2 c 0.6 -0.1 1.4 -0.2 2.9 -0.5 c 0.2 -0.5 0.4 -0.9 0.6 -1.4 c 0.4 -0.8 0.7 -1.5 1.1 -2.3 c 1.4 -3 2.6 -5.6 3.7 -8.3 l 3.4 -7.7 l 0 0 l 0 -0.1 c 0.1 -0.9 0.5 -1.3 0.8 -1.6 c 0.9 -0.6 2 -0.4 2.8 -0.3 c 0.5 0 0.9 0.3 1.1 0.7 c 0.8 1.2 -0.1 3.6 -2.3 8.6 l -4 9.1 c -0.4 0.8 -0.7 1.5 -1.1 2.3 l 1.4 -0.2 c 2.8 -0.5 6.3 -1 10.8 -1.8 L 85 21.5 c 1 -0.2 2 -0.3 3 -0.5 c 0.1 -0.2 0.2 -0.5 0.3 -0.7 c 0.1 -0.2 0.2 -0.4 0.3 -0.6 c 0.1 -0.5 0.3 -1.1 0.6 -1.6 l 0.4 -1 c 0.3 -1 0.8 -2 1.2 -2.9 l 0.2 -0.4 l 1.7 -3.7 L 93.6 8 l 0.6 -0.9 c 0.3 -0.6 1 -1 1.7 -1.2 c 0.8 -0.2 1.6 0 2.3 0.5 C 98.7 7 99 7.9 98.6 8.7 c -1.2 2.3 -2.3 4.7 -3.3 7.1 c -0.1 0.4 -0.3 0.8 -0.5 1.2 c -0.1 0.2 -0.2 0.4 -0.3 0.6 l -0.4 1.1 c -0.2 0.5 -0.3 1 -0.5 1.5 c 0.4 -0.1 0.8 -0.1 1.2 -0.2 c 1 -0.1 2.1 -0.3 3.1 -0.4 c 2.4 -0.5 4.9 -0.8 7.4 -1 c 1 0 1.9 0.4 2.6 1.1 l 0.1 0.2 c 0.1 0.1 0.1 0.3 0.2 0.4 c 0.3 1 -0.2 2 -1.2 2.3 c -0.6 0.2 -1.3 0.5 -2 0.8 c -0.8 0.4 -1.6 0.7 -2.5 1 c -1 0.4 -2.2 0.2 -3 -0.5 c -0.1 -0.1 -0.2 -0.2 -0.4 -0.3 l -7.2 1.1 c -0.6 1.6 -1.2 3.1 -1.7 4.7 c -0.6 1.6 -1.2 3.2 -1.8 4.7 c -1.5 4 -2.6 8.1 -3.5 12.3 c -0.2 0.8 -0.2 1.7 -0.2 2.5 c 0 0 0 0.1 0 0.1 c 0.3 -0.1 0.7 -0.3 1 -0.4 l 0.3 -0.1 c 1.3 -0.6 2.5 -1.3 3.6 -2.1 c 5.9 -4.2 11.5 -9 16.5 -14.2 c 1.4 -4 3 -7.9 4.8 -11.6 c 3 -6.1 6.5 -12.9 11.9 -18.3 c 1.9 -2.2 3.6 -2.3 4.9 -1.8 l 0.4 -0.5 l -0.2 0.6 c 0.3 0.2 0.6 0.4 0.9 0.6 l 0.2 0.2 c 1.4 2.1 -0.3 5.7 -1.6 8.4 c -0.1 0.3 -0.3 0.6 -0.4 0.8 l -0.4 0.9 c -2.1 4.2 -4.4 8.2 -7 12 c -1.6 2.3 -4.2 5.6 -6 7.7 l -0.7 0.9 c -0.8 1 -1.7 2 -2.7 2.9 l -0.7 2.4 c -0.8 2.2 -1.1 4.4 -1 6.7 c 0.4 -0.2 1.1 -0.6 2.2 -1.3 l 0.3 -0.2 c 2.4 -1.7 4.6 -3.7 6.7 -5.9 c 0.4 -0.3 0.7 -0.7 1 -1 c 0.3 -0.3 0.7 -0.7 1.1 -1 c 1.2 -1.2 2.6 -2.8 4.2 -4.6 c 0.6 -0.8 1.3 -1.6 2 -2.3 c 0.3 -0.4 0.7 -0.7 1 -1.1 c 0.2 -0.2 0.4 -0.3 0.6 -0.4 c 0.4 -0.4 0.7 -0.9 1.1 -1.4 l 0.2 -0.2 c 0.4 -0.3 0.9 -0.4 1.4 -0.4 c 1.3 0 2.4 1.1 2.3 2.4 l 0 0.3 l -0.7 1 l -0.3 0.3 l -0.8 1 c -1.3 1.7 -2.4 3.6 -3.3 5.5 c -1 1.9 -1.7 3.9 -2 6 l 0.3 -0.1 c 1.9 -1 3.9 -2.2 5.7 -3.5 c 1.2 -0.8 2.6 -1.7 8.7 -7.2 c 0.9 -0.7 1.8 -1.5 2.7 -2.4 c 1.1 -1 2.3 -2.1 3.6 -3.2 l 0.1 -0.1 l 0.2 -0.1 c 0.1 0 0.1 0 0.2 -0.1 c 0.4 -1.3 1.1 -3.4 3.2 -3.7 c 1 -0.2 2 0.1 2.7 0.9 l 0.1 0.2 c 0.2 0.4 0.3 0.8 0.3 1.2 c 1.4 -1.2 3 -2.2 4.3 -2.1 c 0.9 0.1 1.6 0.6 2 1.4 l 0 0.1 c 0.6 1.7 0 3.6 -0.5 5.2 l -0.1 0.3 c -0.7 1.7 -1.3 3.4 -1.7 5.1 l 0 0.2 c -0.2 0.6 -0.3 1.3 -0.3 2 c 0 0 0 0 0 0 l 1.6 -1.2 l 4.2 -3.5 c 2.4 -2.1 4.6 -4.1 6.8 -6.3 l 1.7 -1.8 c 1.1 -1.1 1.7 -1.7 2.1 -2.1 c 0.7 -0.8 1.6 -1.6 2.5 -2.4 c 0.8 -0.7 3.8 -3 6.6 -1.6 c 0.9 0.5 2.7 2.1 0.8 5.7 c -0.8 1.6 -1.9 3 -3.2 4.2 c -1.3 1.3 -2.7 2.4 -4.3 3.3 c -0.9 0.7 -2.1 1 -3.3 0.9 c -0.2 0.9 -0.2 1.6 0.2 2.2 c 1.4 0.2 3.9 -1.3 5.3 -2.2 l 0.5 -0.3 c 4.4 -2.8 8.5 -6.2 12.1 -10.1 c 0.4 -0.4 0.9 -0.8 1.3 -1.3 c 0.5 -0.5 1.1 -1 1.5 -1.4 c 0.6 -0.6 1.2 -1 1.9 -1.4 l 0 0 c 0.8 -0.4 2 -0.4 2.8 0.2 C 198.6 16.7 198.8 17.4 198.7 18.1 Z M 151.5 24.4 C 151.6 24.4 151.6 24.4 151.5 24.4 C 151.6 24.4 151.6 24.4 151.5 24.4 C 151.6 24.4 151.6 24.4 151.5 24.4 Z M 121.4 11.7 c -0.8 1.2 -1.6 2.5 -2.3 3.8 l 0 0 c -0.4 0.7 -0.8 1.3 -1.1 2 C 119.2 15.7 120.3 13.7 121.4 11.7 Z M 60.4 35.2 c 1.3 0 2.8 0.3 3.8 1 c 0.2 -0.2 0.4 -0.4 0.6 -0.5 l 0.1 -0.1 c 0.9 -0.5 1.9 -0.5 2.8 0 c 0.1 0.1 0.3 0.1 0.4 0.2 c 0.2 -0.3 0.5 -0.6 0.7 -0.8 c 0.7 -0.5 1.5 -0.8 2.3 -0.8 c 1 0 1.9 0.4 2.6 1.2 c 1 1 1.2 2.2 1.1 3.4 c 1.6 -0.7 3.1 -1.5 4.6 -2.4 l 2.4 -1.5 c 0.3 -0.2 0.3 -0.1 0.6 -0.3 c 0.2 -0.1 0.3 -0.1 0.4 -0.2 l 0.3 -0.6 c 0.1 -0.4 0.3 -0.8 0.4 -1.2 c 0.8 -2.2 1.6 -4.5 2.5 -6.9 h 0 c -5.7 0.9 -10.8 1.7 -15.8 2.6 c -2.5 0.4 -5.1 0.8 -7.6 1.2 c -2.5 0.4 -5.1 0.8 -7.6 1.2 l -0.3 0 c -0.2 0.4 -0.4 0.9 -0.6 1.3 c -0.6 1.5 -1.3 2.8 -1.9 4.4 c 1.1 -0.2 2.2 -0.4 3.3 -0.7 l 0.1 0 C 57.4 35.4 58.9 35.3 60.4 35.2 Z M 64.4 43.6 c -1.1 1.8 -1.7 3.7 -2 5.8 c 0 0.3 0 0.8 0 1.1 c 0.1 -0.1 0.2 -0.1 0.4 -0.2 c 1.1 -0.9 2.2 -2 3 -3.3 l 0.5 -0.9 c 0.7 -1 1.3 -2.1 1.9 -3.2 c 0.1 -0.1 0.1 -0.3 0.2 -0.4 c -0.6 -0.7 -1 -1.6 -1.1 -2.5 c 0 -0.2 -0.1 -0.4 -0.1 -0.6 C 66.1 40.8 65.2 42.2 64.4 43.6 Z M 176 24.1 c 0.7 -0.7 1.3 -1.4 2 -2.2 C 177.4 22.5 176.8 23.2 176 24.1 C 176 24 176 24 176 24.1 Z M 32.8 31.3 c -1.5 3.6 -3 7 -4.4 10.3 c 4.9 -1.1 9.9 -2.2 14.8 -3.3 c 0.6 -0.2 1.3 -0.3 1.9 -0.4 c 0.4 -0.1 1 -0.2 1.4 -0.3 l 2.4 -5.9 c 0 0 0 0 0 0 c -1.7 0.3 -3.4 0.6 -5.1 0.8 L 40.5 33 c -0.9 0.2 -3.3 0.8 -4.3 -1.3 c -0.1 -0.1 -0.1 -0.3 -0.1 -0.4 H 32.8 Z"/>
        </defs>
        <clipPath id="SVGID_2_">
            <use style="overflow:visible;" xlink:href="#SVGID_1_"/>
        </clipPath>
        <path class="st0" id="h1" d="M 43.1 1.7 l -8 18.2 c 0 0 -3.5 7.9 -6.8 15.5 c -2.7 6.2 -5.5 12.7 -6 14 C 21.2 52.2 6.2 88.5 7.8 88.1 s 3.2 -1.3 5 -5.5"/>
        <path class="st1" id="h2" d="M 63.5 4 c 0 0 -4 10.6 -5.3 13.3 c -1.2 2.7 -2.6 5.4 -2.9 6.2 c -0.4 0.9 -4.2 9.7 -4.3 9.9 s -4.7 10.8 -4.7 10.8 s -1.3 3.1 -2.6 6.4 c -1.4 3.3 -2.8 6.8 -2.9 7.1 c -0.2 0.6 -2.7 7.5 -2.7 7.5 l -2.1 7.5 c 0 0 -0.8 2.6 -0.3 4.9"/>
        <path class="st2" id="h3" d="M -1.1 50.3 l 35 -7.9 l 7.7 -1.8 L 54.7 38 c 0 0 2.5 -0.9 4.7 -0.7 c 1 0.1 1.5 -0.1 2.1 0.1 c 0.8 0.3 2 0.3 2.4 0.4 c 1.4 0.5 2 -2.1 1.8 -0.8 c -0.2 1.4 -4.6 5.2 -5.3 9.3 c -0.7 4.2 -0.4 4.8 -0.2 5.3 s 1.1 2.2 3.1 0.9 s 5.4 -5.4 6 -6.4 c 0.5 -1 3 -6.1 3.2 -7.2 c 0.2 -1.1 0.7 -3.3 -0.9 -3.8 c -1.6 -0.5 -3 1.9 -2.9 2.8 c 0.1 0.9 0.3 1.9 1.1 2.3 c 0.8 0.4 4.4 0.9 5.7 0.3 c 1.3 -0.6 8.9 -4.3 9.4 -4.7 c 0.5 -0.5 3.8 -9.7 4.6 -12.4 c 0.1 -0.2 0.2 -0.5 0.4 -0.8 c 1.4 -3.8 4.9 -14.8 5.2 -14.9 c 0.3 -0.1 2 -0.5 1.6 0.2 c -0.4 0.7 -5.2 10.3 -5.2 10.3 s -1.7 4.5 -3.6 9.6 c -2.2 5.8 -4.5 12.3 -4.7 13.4 c -0.4 2.1 -1.9 8.2 -0.9 9 c 1 0.8 2.9 1.6 6.8 -0.9 c 4 -2.5 12 -9.2 12.8 -10 c 0.8 -0.8 9.8 -8.7 11 -10.2 c 1.2 -1.5 5.3 -7.6 6.6 -9.8 c 1.3 -2.2 5.9 -9.8 6.3 -10.9 s 2.2 -5.1 2 -5.8 s -1.8 -1.3 -2.7 -0.5 s -3.6 4.8 -4.3 5.9 c -0.7 1 -4.2 6.6 -4.9 8.1 s -3.2 7.1 -3.7 8 s -2.5 5.3 -2.7 5.7 c -0.2 0.4 -2.5 7.7 -2.8 9.2 s -1.1 5.2 -0.7 5.9 s 1.2 1.8 3 1 c 1.8 -0.9 6.8 -5 8 -6.4 c 1.2 -1.4 12.1 -13.5 12.5 -13.6 s 1.3 0.1 0.9 0.7 c -0.4 0.6 -5.9 8.5 -6.5 9.7 s -1.6 3.4 -1.5 4.8 s 2.1 2.3 3.5 1.6 c 1.4 -0.7 14.4 -9.4 17 -12.3 s 7.4 -8 7.7 -8.5 c 0.3 -0.5 -9.3 20 -9.3 20 s 1.9 -0.8 2.6 -2 c 2.8 -4.2 8.6 -15.2 10.3 -16.1 c 2.2 -1.1 2.8 -1.3 2.9 -0.5 c 0.2 0.7 -1 2.6 -1.7 5.2 c -0.6 2.5 -1.9 5.3 -1.6 7.1 s 2.2 1.6 2.2 1.6 s 9.1 -6 11.8 -9.1 c 2.7 -3 9.3 -9.7 9.3 -9.7 s 1.7 -2.1 0.5 -0.3 s -6.5 8.7 -5.9 9 s 1.5 1.7 4.7 -1.2 c 3.1 -2.9 5.4 -6.4 5.3 -7 s -0.8 -2.5 -2.5 -1.3 c -1.7 1.2 -10.1 12.3 -9.9 13.2 c 0.2 0.9 0.9 3.3 1.9 3.3 c 1 0.1 5.4 -0.2 10.5 -4.2 c 5.2 -4 15.1 -13.3 15.1 -13.3 l 1 -1.2"/>
        <path class="st3" id="h4" d="M 31.8 31.9 c 0 0 10.7 -1.4 11.7 -1.5 c 0.3 0 2.2 -0.4 4.1 -0.7 c 5.8 -0.9 16.4 -2.7 16.4 -2.7 l 18.4 -3 l 17.2 -2.8 c 0 0 6.9 -1.6 6.8 -0.9 c -0.1 0.7 -3.5 2.8 -4.4 2.9 s -2.8 1 -2.8 1"/>
        <path class="st0" id="h5" d="M 130.2 23 l 2.9 -2.4 c 0 0 0.9 -0.7 1.6 -1.7 c 0.9 -1.3 1.9 -2.7 2 -3.1"/>
    </g>
    </svg>